<?xml version="1.0" encoding="UTF-8" standalone="no"?><svg xmlns="http://www.w3.org/2000/svg" xmlns:xlink="http://www.w3.org/1999/xlink" style="isolation:isolate" viewBox="0 0 1000 500" width="1000pt" height="500pt"><defs><clipPath id="_clipPath_1ieFk2jqrbmyUsUCcmfVGgCwax0CkzdS"><rect width="1000" height="500"/></clipPath></defs><g clip-path="url(#_clipPath_1ieFk2jqrbmyUsUCcmfVGgCwax0CkzdS)"><path d=" M 0 245.551 L 0 333 L 87.449 333 C 79.701 341.808 75 353.359 75 366 C 75 393.596 97.404 416 125 416 C 152.596 416 175 393.596 175 366 C 175 353.359 170.299 341.808 162.551 333 L 250 333 L 250 245.551 C 258.808 253.299 270.359 258 283 258 C 310.596 258 333 235.596 333 208 C 333 180.404 310.596 158 283 158 C 270.359 158 258.808 162.701 250 170.449 L 250 83 L 0 83 L 0 170.449 C 8.808 162.701 20.359 158 33 158 C 60.596 158 83 180.404 83 208 C 83 235.596 60.596 258 33 258 C 20.359 258 8.808 253.299 0 245.551 Z " fill-rule="evenodd" fill="rgb(255,224,223)"/><path d=" M 662.551 333 L 750 333 L 750 245.551 C 758.808 253.299 770.359 258 783 258 C 810.596 258 833 235.596 833 208 C 833 180.404 810.596 158 783 158 C 770.359 158 758.808 162.701 750 170.449 L 750 83 L 500 83 L 500 170.449 C 508.808 162.701 520.359 158 533 158 C 560.596 158 583 180.404 583 208 C 583 235.596 560.596 258 533 258 C 520.359 258 508.808 253.299 500 245.551 L 500 333 L 587.449 333 C 579.701 324.192 575 312.641 575 300 C 575 272.404 597.404 250 625 250 C 652.596 250 675 272.404 675 300 C 675 312.641 670.299 324.192 662.551 333 Z " fill-rule="evenodd" fill="rgb(255,224,223)"/><path d=" M 337.449 83 L 0 83 L 0 0 L 375 0 L 1000 0 L 1000 83 L 912.551 83 C 920.299 91.808 925 103.359 925 116 C 925 143.596 902.596 166 875 166 C 847.404 166 825 143.596 825 116 C 825 103.359 829.701 91.808 837.449 83 L 412.551 83 C 420.299 74.192 425 62.641 425 50 C 425 22.404 402.596 0 375 0 L 375 0 C 347.404 0 325 22.404 325 50 C 325 62.641 329.701 74.192 337.449 83 Z " fill-rule="evenodd" fill="rgb(255,224,223)"/></g></svg>